<svg width="21" height="18" viewBox="0 0 21 18" xmlns="http://www.w3.org/2000/svg">
<path fill-rule="evenodd" clip-rule="evenodd" d="M18.5986 0.428833C18.8433 0.325853 19.1111 0.290336 19.3742 0.325978C19.6372 0.36162 19.8859 0.467118 20.0944 0.631492C20.3028 0.795865 20.4634 1.0131 20.5594 1.2606C20.6554 1.50809 20.6833 1.7768 20.6402 2.03874L18.3947 15.6596C18.1768 16.9734 16.7353 17.7269 15.5303 17.0724C14.5224 16.5249 13.0254 15.6813 11.6788 14.8011C11.0056 14.3605 8.94317 12.9496 9.19664 11.9457C9.41446 11.0873 12.8798 7.86152 14.86 5.94369C15.6372 5.19023 15.2828 4.75557 14.365 5.44864C12.0858 7.16944 8.42634 9.78627 7.21644 10.5229C6.14911 11.1724 5.59267 11.2833 4.92732 11.1724C3.71346 10.9704 2.58772 10.6576 1.6689 10.2764C0.427317 9.76152 0.487713 8.05459 1.66791 7.55756L18.5986 0.428833Z"/>
</svg>
