<svg width="22" height="21" viewBox="0 0 22 21" fill="none" xmlns="http://www.w3.org/2000/svg">
<path d="M16.06 12.0021C14.2 12.0021 12.64 13.3321 12.24 15.1021C11.29 14.6921 10.42 14.8021 9.76 15.0921C9.35 13.3121 7.79 12.0021 5.94 12.0021C3.77 12.0021 2 13.7921 2 16.0021C2 18.2121 3.77 20.0021 5.94 20.0021C8 20.0021 9.68 18.3821 9.84 16.3221C10.18 16.0821 11.07 15.6321 12.16 16.3421C12.34 18.3921 14 20.0021 16.06 20.0021C18.23 20.0021 20 18.2121 20 16.0021C20 13.7921 18.23 12.0021 16.06 12.0021ZM5.94 18.8621C4.38 18.8621 3.13 17.5821 3.13 16.0021C3.13 14.4221 4.39 13.1421 5.94 13.1421C7.5 13.1421 8.75 14.4221 8.75 16.0021C8.75 17.5821 7.5 18.8621 5.94 18.8621ZM16.06 18.8621C14.5 18.8621 13.25 17.5821 13.25 16.0021C13.25 14.4221 14.5 13.1421 16.06 13.1421C17.62 13.1421 18.88 14.4221 18.88 16.0021C18.88 17.5821 17.61 18.8621 16.06 18.8621ZM21 9.50207H1V11.0021H21V9.50207ZM14.53 1.63207C14.31 1.14207 13.75 0.882069 13.22 1.05207L11 1.79207L8.77 1.05207L8.72 1.04207C8.19 0.892069 7.63 1.17207 7.43 1.68207L5 8.00207H17L14.56 1.68207L14.53 1.63207Z" stroke-width="0.75"/>
</svg>
