<svg width="22" height="22" viewBox="0 0 22 22" fill="none" xmlns="http://www.w3.org/2000/svg">
<path d="M11.5882 1C12.8733 1.00096 14.1445 1.26505 15.3235 1.776C16.5026 2.28695 17.5646 3.03394 18.444 3.97093C19.3233 4.90793 20.0015 6.01508 20.4368 7.22415C20.872 8.43323 21.055 9.71863 20.9745 11.0011C20.8941 12.2836 20.5518 13.5361 19.9689 14.6813C19.3859 15.8265 18.5747 16.8402 17.5851 17.6599C16.5955 18.4796 15.4485 19.088 14.2148 19.4476C12.9811 19.8071 11.6868 19.9103 10.4118 19.7506V18.5647C10.7961 18.6196 11.1882 18.6475 11.5882 18.6482C13.1862 18.6482 14.7497 18.1833 16.0881 17.3102C17.4264 16.437 18.4818 15.1933 19.1256 13.7308C19.7694 12.2682 19.9738 10.6499 19.7138 9.07317C19.4539 7.49646 18.7408 6.02944 17.6615 4.85097C16.5823 3.67249 15.1834 2.83348 13.6356 2.4362C12.0878 2.03892 10.4578 2.10056 8.9444 2.61358C7.43098 3.1266 6.09952 4.06885 5.11233 5.32546C4.12514 6.58207 3.52487 8.09875 3.38471 9.69059C2.90316 9.96209 2.49212 10.3429 2.18471 10.8024C2.13205 9.5346 2.33628 8.2693 2.78511 7.08249C3.23395 5.89568 3.91812 4.81189 4.79651 3.89625C5.67489 2.9806 6.72935 2.25203 7.8965 1.75431C9.06365 1.2566 10.3194 1.00002 11.5882 1ZM11 4.52941C11.1377 4.52937 11.271 4.57761 11.3768 4.66575C11.4825 4.75389 11.554 4.87634 11.5788 5.01176L11.5882 5.11765V10.4118H14.5294C14.6764 10.4115 14.8182 10.4663 14.9268 10.5653C15.0354 10.6643 15.103 10.8005 15.1163 10.9468C15.1296 11.0932 15.0876 11.2393 14.9986 11.3563C14.9095 11.4732 14.7799 11.5526 14.6353 11.5788L14.5294 11.5882H11C10.8623 11.5883 10.729 11.54 10.6232 11.4519C10.5175 11.3638 10.446 11.2413 10.4212 11.1059L10.4118 11V5.11765C10.4118 4.96164 10.4737 4.81202 10.5841 4.7017C10.6944 4.59139 10.844 4.52941 11 4.52941ZM2.76471 12.7647V13.9412H2.17647C1.86445 13.9412 1.56521 14.0651 1.34458 14.2858C1.12395 14.5064 1 14.8056 1 15.1176V19.8235C1 20.1355 1.12395 20.4348 1.34458 20.6554C1.56521 20.8761 1.86445 21 2.17647 21H8.05882C8.37084 21 8.67008 20.8761 8.89071 20.6554C9.11135 20.4348 9.23529 20.1355 9.23529 19.8235V15.1176C9.23529 14.8056 9.11135 14.5064 8.89071 14.2858C8.67008 14.0651 8.37084 13.9412 8.05882 13.9412H7.47059V12.7647C7.47059 12.1407 7.22269 11.5422 6.78143 11.1009C6.34017 10.6597 5.74169 10.4118 5.11765 10.4118C4.49361 10.4118 3.89513 10.6597 3.45387 11.1009C3.0126 11.5422 2.76471 12.1407 2.76471 12.7647ZM3.94118 13.9412V12.7647C3.94118 12.4527 4.06513 12.1534 4.28576 11.9328C4.50639 11.7122 4.80563 11.5882 5.11765 11.5882C5.42967 11.5882 5.72891 11.7122 5.94954 11.9328C6.17017 12.1534 6.29412 12.4527 6.29412 12.7647V13.9412H3.94118ZM5.11765 16.5882C5.35166 16.5882 5.57609 16.6812 5.74157 16.8467C5.90704 17.0121 6 17.2366 6 17.4706C6 17.7046 5.90704 17.929 5.74157 18.0945C5.57609 18.26 5.35166 18.3529 5.11765 18.3529C4.88363 18.3529 4.6592 18.26 4.49373 18.0945C4.32826 17.929 4.23529 17.7046 4.23529 17.4706C4.23529 17.2366 4.32826 17.0121 4.49373 16.8467C4.6592 16.6812 4.88363 16.5882 5.11765 16.5882Z" stroke-width="0.75"/>
</svg>
