<svg width="20" height="20" viewBox="0 0 20 20" fill="none" xmlns="http://www.w3.org/2000/svg">
<path d="M15.7829 14.3914L20 18.6071L18.6071 20L14.3914 15.7829C13.0874 16.8229 11.5164 17.4739 9.8589 17.6611C8.20144 17.8482 6.5248 17.5639 5.02168 16.8409C3.51855 16.1178 2.24994 14.9853 1.36163 13.5735C0.473318 12.1618 0.001362 10.528 0 8.86C0.00113592 6.51028 0.935158 4.25715 2.59679 2.59578C4.25843 0.934416 6.51171 0.000757088 8.86143 0C10.5293 0.0016305 12.1629 0.473781 13.5744 1.3622C14.986 2.25061 16.1183 3.51925 16.8412 5.02232C17.5641 6.5254 17.8482 8.20192 17.661 9.85926C17.4738 11.5166 16.8228 13.0875 15.7829 14.3914ZM13.8086 13.66C14.7527 12.6884 15.3894 11.46 15.639 10.1284C15.8887 8.79687 15.7403 7.42126 15.2124 6.1736C14.6845 4.92594 13.8004 3.8616 12.6708 3.11368C11.5412 2.36577 10.2162 1.96746 8.86143 1.96857C7.95614 1.9682 7.05965 2.14623 6.2232 2.49249C5.38675 2.83876 4.62674 3.34647 3.98661 3.98661C3.34647 4.62674 2.83876 5.38675 2.49249 6.2232C2.14623 7.05965 1.9682 7.95614 1.96857 8.86143C1.96746 10.2162 2.36577 11.5412 3.11368 12.6708C3.8616 13.8004 4.92594 14.6845 6.1736 15.2124C7.42126 15.7403 8.79687 15.8887 10.1284 15.639C11.46 15.3894 12.6884 14.7527 13.66 13.8086L13.8086 13.66ZM10.0214 5.09571C9.73057 5.22654 9.47582 5.42603 9.27907 5.67703C9.08232 5.92804 8.94945 6.22306 8.89189 6.53675C8.83432 6.85044 8.85377 7.17342 8.94858 7.47793C9.04338 7.78244 9.21069 8.05938 9.43615 8.28496C9.6616 8.51054 9.93845 8.67801 10.2429 8.77298C10.5474 8.86794 10.8703 8.88757 11.1841 8.83018C11.4978 8.77278 11.7929 8.64008 12.044 8.44347C12.2951 8.24686 12.4947 7.99222 12.6257 7.70143C12.794 8.2436 12.8432 8.81573 12.7698 9.37866C12.6965 9.94159 12.5023 10.482 12.2007 10.9629C11.8991 11.4439 11.4971 11.8539 11.0222 12.1651C10.5474 12.4762 10.0109 12.6811 9.44957 12.7656C8.88821 12.8501 8.31521 12.8124 7.76981 12.6549C7.2244 12.4974 6.71947 12.2239 6.28958 11.8531C5.85969 11.4824 5.515 11.0231 5.27911 10.5067C5.04321 9.99035 4.92169 9.42912 4.92286 8.86143C4.92257 8.24479 5.06708 7.63669 5.34474 7.0861C5.62241 6.53551 6.02548 6.0578 6.5215 5.69145C7.01752 5.3251 7.59263 5.08034 8.20053 4.97686C8.80843 4.87339 9.43214 4.9141 10.0214 5.09571Z"/>
</svg>