<?xml version="1.0" encoding="utf-8"?><svg xmlns="http://www.w3.org/2000/svg" xmlns:xlink="http://www.w3.org/1999/xlink"><symbol viewBox="0 0 22 21" fill="none" id="anon" xmlns="http://www.w3.org/2000/svg">
<path d="M16.06 12.0021C14.2 12.0021 12.64 13.3321 12.24 15.1021C11.29 14.6921 10.42 14.8021 9.76 15.0921C9.35 13.3121 7.79 12.0021 5.94 12.0021C3.77 12.0021 2 13.7921 2 16.0021C2 18.2121 3.77 20.0021 5.94 20.0021C8 20.0021 9.68 18.3821 9.84 16.3221C10.18 16.0821 11.07 15.6321 12.16 16.3421C12.34 18.3921 14 20.0021 16.06 20.0021C18.23 20.0021 20 18.2121 20 16.0021C20 13.7921 18.23 12.0021 16.06 12.0021ZM5.94 18.8621C4.38 18.8621 3.13 17.5821 3.13 16.0021C3.13 14.4221 4.39 13.1421 5.94 13.1421C7.5 13.1421 8.75 14.4221 8.75 16.0021C8.75 17.5821 7.5 18.8621 5.94 18.8621ZM16.06 18.8621C14.5 18.8621 13.25 17.5821 13.25 16.0021C13.25 14.4221 14.5 13.1421 16.06 13.1421C17.62 13.1421 18.88 14.4221 18.88 16.0021C18.88 17.5821 17.61 18.8621 16.06 18.8621ZM21 9.50207H1V11.0021H21V9.50207ZM14.53 1.63207C14.31 1.14207 13.75 0.882069 13.22 1.05207L11 1.79207L8.77 1.05207L8.72 1.04207C8.19 0.892069 7.63 1.17207 7.43 1.68207L5 8.00207H17L14.56 1.68207L14.53 1.63207Z" stroke-width="0.75"/>
</symbol><symbol viewBox="0 0 22 22" fill="none" id="clock" xmlns="http://www.w3.org/2000/svg">
<path d="M11.5882 1C12.8733 1.00096 14.1445 1.26505 15.3235 1.776C16.5026 2.28695 17.5646 3.03394 18.444 3.97093C19.3233 4.90793 20.0015 6.01508 20.4368 7.22415C20.872 8.43323 21.055 9.71863 20.9745 11.0011C20.8941 12.2836 20.5518 13.5361 19.9689 14.6813C19.3859 15.8265 18.5747 16.8402 17.5851 17.6599C16.5955 18.4796 15.4485 19.088 14.2148 19.4476C12.9811 19.8071 11.6868 19.9103 10.4118 19.7506V18.5647C10.7961 18.6196 11.1882 18.6475 11.5882 18.6482C13.1862 18.6482 14.7497 18.1833 16.0881 17.3102C17.4264 16.437 18.4818 15.1933 19.1256 13.7308C19.7694 12.2682 19.9738 10.6499 19.7138 9.07317C19.4539 7.49646 18.7408 6.02944 17.6615 4.85097C16.5823 3.67249 15.1834 2.83348 13.6356 2.4362C12.0878 2.03892 10.4578 2.10056 8.9444 2.61358C7.43098 3.1266 6.09952 4.06885 5.11233 5.32546C4.12514 6.58207 3.52487 8.09875 3.38471 9.69059C2.90316 9.96209 2.49212 10.3429 2.18471 10.8024C2.13205 9.5346 2.33628 8.2693 2.78511 7.08249C3.23395 5.89568 3.91812 4.81189 4.79651 3.89625C5.67489 2.9806 6.72935 2.25203 7.8965 1.75431C9.06365 1.2566 10.3194 1.00002 11.5882 1ZM11 4.52941C11.1377 4.52937 11.271 4.57761 11.3768 4.66575C11.4825 4.75389 11.554 4.87634 11.5788 5.01176L11.5882 5.11765V10.4118H14.5294C14.6764 10.4115 14.8182 10.4663 14.9268 10.5653C15.0354 10.6643 15.103 10.8005 15.1163 10.9468C15.1296 11.0932 15.0876 11.2393 14.9986 11.3563C14.9095 11.4732 14.7799 11.5526 14.6353 11.5788L14.5294 11.5882H11C10.8623 11.5883 10.729 11.54 10.6232 11.4519C10.5175 11.3638 10.446 11.2413 10.4212 11.1059L10.4118 11V5.11765C10.4118 4.96164 10.4737 4.81202 10.5841 4.7017C10.6944 4.59139 10.844 4.52941 11 4.52941ZM2.76471 12.7647V13.9412H2.17647C1.86445 13.9412 1.56521 14.0651 1.34458 14.2858C1.12395 14.5064 1 14.8056 1 15.1176V19.8235C1 20.1355 1.12395 20.4348 1.34458 20.6554C1.56521 20.8761 1.86445 21 2.17647 21H8.05882C8.37084 21 8.67008 20.8761 8.89071 20.6554C9.11135 20.4348 9.23529 20.1355 9.23529 19.8235V15.1176C9.23529 14.8056 9.11135 14.5064 8.89071 14.2858C8.67008 14.0651 8.37084 13.9412 8.05882 13.9412H7.47059V12.7647C7.47059 12.1407 7.22269 11.5422 6.78143 11.1009C6.34017 10.6597 5.74169 10.4118 5.11765 10.4118C4.49361 10.4118 3.89513 10.6597 3.45387 11.1009C3.0126 11.5422 2.76471 12.1407 2.76471 12.7647ZM3.94118 13.9412V12.7647C3.94118 12.4527 4.06513 12.1534 4.28576 11.9328C4.50639 11.7122 4.80563 11.5882 5.11765 11.5882C5.42967 11.5882 5.72891 11.7122 5.94954 11.9328C6.17017 12.1534 6.29412 12.4527 6.29412 12.7647V13.9412H3.94118ZM5.11765 16.5882C5.35166 16.5882 5.57609 16.6812 5.74157 16.8467C5.90704 17.0121 6 17.2366 6 17.4706C6 17.7046 5.90704 17.929 5.74157 18.0945C5.57609 18.26 5.35166 18.3529 5.11765 18.3529C4.88363 18.3529 4.6592 18.26 4.49373 18.0945C4.32826 17.929 4.23529 17.7046 4.23529 17.4706C4.23529 17.2366 4.32826 17.0121 4.49373 16.8467C4.6592 16.6812 4.88363 16.5882 5.11765 16.5882Z" stroke-width="0.75"/>
</symbol><symbol viewBox="0 0 20 20" fill="none" id="search" xmlns="http://www.w3.org/2000/svg">
<path d="M15.7829 14.3914L20 18.6071L18.6071 20L14.3914 15.7829C13.0874 16.8229 11.5164 17.4739 9.8589 17.6611C8.20144 17.8482 6.5248 17.5639 5.02168 16.8409C3.51855 16.1178 2.24994 14.9853 1.36163 13.5735C0.473318 12.1618 0.001362 10.528 0 8.86C0.00113592 6.51028 0.935158 4.25715 2.59679 2.59578C4.25843 0.934416 6.51171 0.000757088 8.86143 0C10.5293 0.0016305 12.1629 0.473781 13.5744 1.3622C14.986 2.25061 16.1183 3.51925 16.8412 5.02232C17.5641 6.5254 17.8482 8.20192 17.661 9.85926C17.4738 11.5166 16.8228 13.0875 15.7829 14.3914ZM13.8086 13.66C14.7527 12.6884 15.3894 11.46 15.639 10.1284C15.8887 8.79687 15.7403 7.42126 15.2124 6.1736C14.6845 4.92594 13.8004 3.8616 12.6708 3.11368C11.5412 2.36577 10.2162 1.96746 8.86143 1.96857C7.95614 1.9682 7.05965 2.14623 6.2232 2.49249C5.38675 2.83876 4.62674 3.34647 3.98661 3.98661C3.34647 4.62674 2.83876 5.38675 2.49249 6.2232C2.14623 7.05965 1.9682 7.95614 1.96857 8.86143C1.96746 10.2162 2.36577 11.5412 3.11368 12.6708C3.8616 13.8004 4.92594 14.6845 6.1736 15.2124C7.42126 15.7403 8.79687 15.8887 10.1284 15.639C11.46 15.3894 12.6884 14.7527 13.66 13.8086L13.8086 13.66ZM10.0214 5.09571C9.73057 5.22654 9.47582 5.42603 9.27907 5.67703C9.08232 5.92804 8.94945 6.22306 8.89189 6.53675C8.83432 6.85044 8.85377 7.17342 8.94858 7.47793C9.04338 7.78244 9.21069 8.05938 9.43615 8.28496C9.6616 8.51054 9.93845 8.67801 10.2429 8.77298C10.5474 8.86794 10.8703 8.88757 11.1841 8.83018C11.4978 8.77278 11.7929 8.64008 12.044 8.44347C12.2951 8.24686 12.4947 7.99222 12.6257 7.70143C12.794 8.2436 12.8432 8.81573 12.7698 9.37866C12.6965 9.94159 12.5023 10.482 12.2007 10.9629C11.8991 11.4439 11.4971 11.8539 11.0222 12.1651C10.5474 12.4762 10.0109 12.6811 9.44957 12.7656C8.88821 12.8501 8.31521 12.8124 7.76981 12.6549C7.2244 12.4974 6.71947 12.2239 6.28958 11.8531C5.85969 11.4824 5.515 11.0231 5.27911 10.5067C5.04321 9.99035 4.92169 9.42912 4.92286 8.86143C4.92257 8.24479 5.06708 7.63669 5.34474 7.0861C5.62241 6.53551 6.02548 6.0578 6.5215 5.69145C7.01752 5.3251 7.59263 5.08034 8.20053 4.97686C8.80843 4.87339 9.43214 4.9141 10.0214 5.09571Z"/>
</symbol><symbol viewBox="0 0 21 18" id="telegram" xmlns="http://www.w3.org/2000/svg">
<path fill-rule="evenodd" clip-rule="evenodd" d="M18.5986 0.428833C18.8433 0.325853 19.1111 0.290336 19.3742 0.325978C19.6372 0.36162 19.8859 0.467118 20.0944 0.631492C20.3028 0.795865 20.4634 1.0131 20.5594 1.2606C20.6554 1.50809 20.6833 1.7768 20.6402 2.03874L18.3947 15.6596C18.1768 16.9734 16.7353 17.7269 15.5303 17.0724C14.5224 16.5249 13.0254 15.6813 11.6788 14.8011C11.0056 14.3605 8.94317 12.9496 9.19664 11.9457C9.41446 11.0873 12.8798 7.86152 14.86 5.94369C15.6372 5.19023 15.2828 4.75557 14.365 5.44864C12.0858 7.16944 8.42634 9.78627 7.21644 10.5229C6.14911 11.1724 5.59267 11.2833 4.92732 11.1724C3.71346 10.9704 2.58772 10.6576 1.6689 10.2764C0.427317 9.76152 0.487713 8.05459 1.66791 7.55756L18.5986 0.428833Z"/>
</symbol><symbol viewBox="0 0 20 20" id="whatsapp" xmlns="http://www.w3.org/2000/svg">
<path d="M10 0C15.523 0 20 4.477 20 10C20 15.523 15.523 20 10 20C8.23277 20.003 6.4966 19.5353 4.97002 18.645L0.00401546 20L1.35602 15.032C0.464974 13.5049 -0.00308163 11.768 1.52687e-05 10C1.52687e-05 4.477 4.47702 0 10 0ZM6.59202 5.3L6.39201 5.308C6.26271 5.31691 6.13636 5.35087 6.02002 5.408C5.91159 5.46951 5.81258 5.5463 5.72602 5.636C5.60602 5.749 5.53802 5.847 5.46502 5.942C5.09514 6.4229 4.89599 7.01331 4.89902 7.62C4.90102 8.11 5.02902 8.587 5.22902 9.033C5.63802 9.935 6.31102 10.89 7.19902 11.775C7.41302 11.988 7.62302 12.202 7.84902 12.401C8.95245 13.3724 10.2673 14.073 11.689 14.447L12.257 14.534C12.442 14.544 12.627 14.53 12.813 14.521C13.1042 14.5056 13.3885 14.4268 13.646 14.29C13.7769 14.2223 13.9047 14.1489 14.029 14.07C14.029 14.07 14.0713 14.0413 14.154 13.98C14.289 13.88 14.372 13.809 14.484 13.692C14.568 13.6053 14.638 13.5047 14.694 13.39C14.772 13.227 14.85 12.916 14.882 12.657C14.906 12.459 14.899 12.351 14.896 12.284C14.892 12.177 14.803 12.066 14.706 12.019L14.124 11.758C14.124 11.758 13.254 11.379 12.722 11.137C12.6663 11.1128 12.6067 11.0989 12.546 11.096C12.4776 11.0888 12.4084 11.0965 12.3432 11.1184C12.278 11.1403 12.2182 11.176 12.168 11.223C12.163 11.221 12.096 11.278 11.373 12.154C11.3315 12.2098 11.2744 12.2519 11.2088 12.2751C11.1433 12.2982 11.0723 12.3013 11.005 12.284C10.9398 12.2666 10.876 12.2446 10.814 12.218C10.69 12.166 10.647 12.146 10.562 12.11C9.98789 11.8599 9.45646 11.5215 8.98702 11.107C8.86102 10.997 8.74402 10.877 8.62402 10.761C8.23063 10.3842 7.88777 9.95799 7.60401 9.493L7.54501 9.398C7.50328 9.3338 7.46905 9.26501 7.44302 9.193C7.40502 9.046 7.50402 8.928 7.50402 8.928C7.50402 8.928 7.74702 8.662 7.86002 8.518C7.97002 8.378 8.06302 8.242 8.12302 8.145C8.24102 7.955 8.27802 7.76 8.21602 7.609C7.93602 6.925 7.64668 6.24467 7.34802 5.568C7.28902 5.434 7.11402 5.338 6.95502 5.319C6.90102 5.31233 6.84702 5.307 6.79302 5.303C6.65874 5.2953 6.52411 5.29663 6.39002 5.307L6.59202 5.3Z"/>
</symbol></svg>